<svg width="17" height="17" viewBox="0 0 17 17" fill="none" xmlns="http://www.w3.org/2000/svg">
<g clip-path="url(#clip0_106_95)">
<path d="M16.3094 8.64968C16.3094 7.99417 16.2562 7.51582 16.1411 7.01976H8.65576V9.97842H13.0495C12.9609 10.7137 12.4826 11.821 11.4195 12.565L11.4046 12.6641L13.7714 14.4976L13.9353 14.5139C15.4412 13.1231 16.3094 11.0769 16.3094 8.64968Z" fill="#4285F4"/>
<path d="M8.65583 16.445C10.8084 16.445 12.6155 15.7363 13.9354 14.5139L11.4196 12.565C10.7464 13.0345 9.84282 13.3623 8.65583 13.3623C6.54755 13.3623 4.75818 11.9716 4.12032 10.0493L4.02682 10.0573L1.56587 11.9618L1.53369 12.0513C2.84471 14.6556 5.53766 16.445 8.65583 16.445Z" fill="#34A853"/>
<path d="M4.12011 10.0493C3.95181 9.55326 3.8544 9.02171 3.8544 8.47252C3.8544 7.92327 3.95181 7.39179 4.11126 6.89573L4.1068 6.79008L1.61501 4.85493L1.53349 4.89371C0.993151 5.97445 0.683105 7.18806 0.683105 8.47252C0.683105 9.75698 0.993151 10.9705 1.53349 12.0513L4.12011 10.0493Z" fill="#FBBC05"/>
<path d="M8.65583 3.58269C10.1529 3.58269 11.1627 4.22934 11.7385 4.76974L13.9885 2.57286C12.6067 1.2884 10.8084 0.5 8.65583 0.5C5.53766 0.5 2.84471 2.28937 1.53369 4.89371L4.11146 6.89573C4.75818 4.97347 6.54755 3.58269 8.65583 3.58269Z" fill="#EB4335"/>
</g>
<defs>
<clipPath id="clip0_106_95">
<rect width="16" height="16" fill="white" transform="translate(0.5 0.5)"/>
</clipPath>
</defs>
</svg>
