<?xml version="1.0" encoding="UTF-8"?><svg id="a" xmlns="http://www.w3.org/2000/svg" viewBox="0 0 24 25"><path d="m21.58,11.97c-.27-5-4.4-9.13-9.73-9.05-5.49.1-9.67,4.67-9.42,10.03.22,4.98,4.29,9.26,9.81,9.14,5.55-.13,9.63-4.77,9.34-10.11Zm-9.3,8.34c-4.36.15-7.95-3.31-8.08-7.57-.13-4.37,3.37-7.99,7.69-8.03,4.2-.09,7.83,3.33,7.91,7.67.07,4.26-3.33,7.79-7.52,7.93Z"/><path d="m15.26,11.61c-.72,0-1.44,0-2.17,0-.22,0-.2.02-.2-.2,0-.72,0-1.44,0-2.17,0-.7-.53-.97-1-.92-.47.05-.78.42-.78.93,0,.73,0,1.46,0,2.19,0,.13-.04.16-.16.16-.37,0-.74,0-1.11,0-.37,0-.74,0-1.11,0-.71.02-.96.57-.9,1,.06.48.41.77.92.78.65,0,1.3,0,1.95,0,.13,0,.32-.04.38.03.07.08.03.26.03.39,0,.64,0,1.29,0,1.93,0,.7.55,1,1.03.93.46-.07.75-.43.75-.93,0-.72,0-1.44,0-2.17q0-.19.18-.19c.73,0,1.45,0,2.18,0,.6,0,1.02-.47.92-1.02-.09-.47-.42-.75-.92-.76Z"/></svg>