<svg width="24" height="25" viewBox="0 0 24 25" fill="none" xmlns="http://www.w3.org/2000/svg">
<path d="M3 7.5C3 5.61438 3 4.67157 3.58579 4.08579C4.17157 3.5 5.11438 3.5 7 3.5H17C18.8856 3.5 19.8284 3.5 20.4142 4.08579C21 4.67157 21 5.61438 21 7.5V17.5C21 19.3856 21 20.3284 20.4142 20.9142C19.8284 21.5 18.8856 21.5 17 21.5H7C5.11438 21.5 4.17157 21.5 3.58579 20.9142C3 20.3284 3 19.3856 3 17.5V7.5Z" stroke="#374151" stroke-width="2"/>
<path d="M3 10.5V10.5C3 11.4319 3 11.8978 3.15224 12.2654C3.35523 12.7554 3.74458 13.1448 4.23463 13.3478C4.60218 13.5 5.06812 13.5 6 13.5H6.67544C7.25646 13.5 7.54696 13.5 7.77888 13.6338C7.83745 13.6675 7.89245 13.7072 7.94303 13.7521C8.14326 13.9298 8.23513 14.2054 8.41886 14.7566L8.54415 15.1325C8.76416 15.7925 8.87416 16.1225 9.13605 16.3112C9.39794 16.5 9.7458 16.5 10.4415 16.5H13.5585C14.2542 16.5 14.6021 16.5 14.864 16.3112C15.1258 16.1225 15.2358 15.7925 15.4558 15.1325L15.5811 14.7566C15.7649 14.2054 15.8567 13.9298 16.057 13.7521C16.1075 13.7072 16.1625 13.6675 16.2211 13.6338C16.453 13.5 16.7435 13.5 17.3246 13.5H18C18.9319 13.5 19.3978 13.5 19.7654 13.3478C20.2554 13.1448 20.6448 12.7554 20.8478 12.2654C21 11.8978 21 11.4319 21 10.5V10.5" stroke="#374151" stroke-width="2"/>
</svg>
