<svg width="24" height="25" viewBox="0 0 24 25" fill="none" xmlns="http://www.w3.org/2000/svg">
<path d="M20 12.5V17.5C20 19.3856 20 20.3284 19.4142 20.9142C18.8284 21.5 17.8856 21.5 16 21.5H6.5C5.11929 21.5 4 20.3807 4 19V19C4 17.6193 5.11929 16.5 6.5 16.5H16C17.8856 16.5 18.8284 16.5 19.4142 15.9142C20 15.3284 20 14.3856 20 12.5V7.5C20 5.61438 20 4.67157 19.4142 4.08579C18.8284 3.5 17.8856 3.5 16 3.5H8C6.11438 3.5 5.17157 3.5 4.58579 4.08579C4 4.67157 4 5.61438 4 7.5V19" stroke="#33363F" stroke-width="2"/>
<path d="M9 8.5L15 8.5" stroke="#33363F" stroke-width="2" stroke-linecap="round"/>
</svg>
