<svg width="24" height="24" viewBox="0 0 24 24" fill="none" xmlns="http://www.w3.org/2000/svg">
<path fill-rule="evenodd" clip-rule="evenodd" d="M15.9202 12.7988C15.9725 12.5407 16 12.2736 16 12C16 9.79086 14.2091 8 12 8C11.7264 8 11.4593 8.02746 11.2012 8.07977L15.9202 12.7988ZM8.66676 9.78799C8.24547 10.4216 8 11.1821 8 12C8 14.2091 9.79086 16 12 16C12.8179 16 13.5784 15.7545 14.212 15.3332L12.7381 13.8594C12.5098 13.9501 12.2607 14 12 14C10.8954 14 10 13.1046 10 12C10 11.7393 10.0499 11.4902 10.1406 11.2619L8.66676 9.78799Z" fill="#6B7280"/>
<path fill-rule="evenodd" clip-rule="evenodd" d="M16.5189 17.6405L15.0496 16.1712C14.0774 16.6805 13.0475 17 11.9998 17C10.474 17 8.98592 16.3224 7.6589 15.3677C6.33978 14.4186 5.26384 13.2558 4.58362 12.43C4.48385 12.3088 4.40934 12.2182 4.34761 12.1385C4.29874 12.0754 4.26762 12.0315 4.24731 12C4.26762 11.9685 4.29874 11.9246 4.34761 11.8615C4.40934 11.7818 4.48385 11.6912 4.58362 11.57C5.24903 10.7622 6.2931 9.63187 7.57307 8.69463L6.14434 7.2659C4.79618 8.29616 3.72222 9.47005 3.03985 10.2985C3.01626 10.3272 2.99168 10.3566 2.96638 10.3869L2.96636 10.3869C2.65294 10.7624 2.22949 11.2696 2.22949 12C2.22949 12.7304 2.65294 13.2376 2.96636 13.6131L2.96658 13.6133C2.99181 13.6435 3.01633 13.6729 3.03985 13.7015C3.77972 14.5998 4.97993 15.9041 6.49087 16.9912C7.99391 18.0725 9.88983 19 11.9998 19C13.6698 19 15.2057 18.419 16.5189 17.6405ZM8.80658 5.6855C9.79037 5.26871 10.8641 5 11.9998 5C14.1097 5 16.0056 5.92747 17.5087 7.00885C19.0196 8.0959 20.2198 9.40025 20.9597 10.2985C20.9833 10.3272 21.0078 10.3566 21.0331 10.3869L21.0332 10.3869C21.3466 10.7624 21.77 11.2696 21.77 12C21.77 12.7304 21.3466 13.2376 21.0332 13.6131C21.0079 13.6434 20.9833 13.6728 20.9597 13.7015C20.473 14.2923 19.7872 15.0589 18.9448 15.8237L17.5287 14.4077C18.3086 13.708 18.9536 12.9912 19.4159 12.43C19.5157 12.3088 19.5902 12.2182 19.6519 12.1385C19.7008 12.0754 19.7319 12.0315 19.7522 12C19.7319 11.9685 19.7008 11.9246 19.6519 11.8615C19.5902 11.7818 19.5157 11.6912 19.4159 11.57C18.7357 10.7442 17.6598 9.58138 16.3406 8.63233C15.0136 7.6776 13.5256 7 11.9998 7C11.4488 7 10.9027 7.08837 10.3673 7.24624L8.80658 5.6855Z" fill="#6B7280"/>
<path d="M5 2L21 18" stroke="#6B7280" stroke-width="2"/>
</svg>
