<svg width="24" height="25" viewBox="0 0 24 25" fill="none" xmlns="http://www.w3.org/2000/svg">
<path d="M5 13.2596C5 11.9019 5 11.223 5.27446 10.6262C5.54892 10.0295 6.06437 9.58769 7.09525 8.70407L8.09525 7.84693C9.95857 6.2498 10.8902 5.45123 12 5.45123C13.1098 5.45123 14.0414 6.2498 15.9047 7.84693L16.9047 8.70407C17.9356 9.58769 18.4511 10.0295 18.7255 10.6262C19 11.223 19 11.9019 19 13.2596V17.5C19 19.3856 19 20.3284 18.4142 20.9142C17.8284 21.5 16.8856 21.5 15 21.5H9C7.11438 21.5 6.17157 21.5 5.58579 20.9142C5 20.3284 5 19.3856 5 17.5V13.2596Z" stroke="#33363F" stroke-width="2"/>
<path d="M14.5 21.5V16.5C14.5 15.9477 14.0523 15.5 13.5 15.5H10.5C9.94772 15.5 9.5 15.9477 9.5 16.5V21.5" stroke="#33363F" stroke-width="2" stroke-linecap="round" stroke-linejoin="round"/>
</svg>
