<svg width="24" height="25" viewBox="0 0 24 25" fill="none" xmlns="http://www.w3.org/2000/svg">
<path d="M8.85 19.5H6C5.44772 19.5 5 19.0523 5 18.5V12.5C5 11.9477 5.44772 11.5 6 11.5H8.85C8.93284 11.5 9 11.5672 9 11.65V19.35C9 19.4328 8.93284 19.5 8.85 19.5Z" stroke="#33363F" stroke-width="2" stroke-linecap="round"/>
<path d="M9 11.5L10.8321 8.75192C10.9416 8.58766 11 8.39465 11 8.19722V5.5C11 4.94772 11.4477 4.5 12 4.5H13C14.1046 4.5 15 5.39543 15 6.5V11.5" stroke="#33363F" stroke-width="2" stroke-linecap="round"/>
<path d="M13 11.5H17.7655C18.9575 11.5 19.8849 12.5361 19.7532 13.7209L19.1977 18.7209C19.0851 19.7337 18.229 20.5 17.2099 20.5H13.4142C13.149 20.5 12.8946 20.3946 12.7071 20.2071L12.2929 19.7929C12.1054 19.6054 11.851 19.5 11.5858 19.5H9" stroke="#33363F" stroke-width="2" stroke-linecap="round"/>
</svg>
