<svg width="194" height="40" viewBox="0 0 194 40" fill="none" xmlns="http://www.w3.org/2000/svg">
<g clip-path="url(#clip0_111_3535)">
<path d="M35 15.0543C33.6801 20.7094 31.8523 26.2287 29.496 31.5464C28.9308 32.786 28.3611 33.9533 27.6124 35.1333C27.2738 35.6492 26.9102 36.1791 26.3774 36.6302C24.8066 37.9809 22.7753 37.1169 22.4072 35.141C22.0669 33.3116 22.33 31.516 22.5196 29.731C22.8907 26.651 23.3097 23.4306 23.5359 20.3986C23.5499 20.1708 23.5638 19.9413 23.5774 19.7086C22.8845 20.873 22.2422 22.088 21.6077 23.2799C20.2015 25.9289 18.5799 29.1489 17.1079 31.7577C17.3004 30.475 17.5623 29.2105 17.8517 27.9537C18.6495 24.5672 20.5975 17.2969 22.8874 14.8436C23.6221 14.0383 24.934 13.6718 25.9321 14.3831C27.5862 15.509 27.3921 18.8106 27.395 20.5784C27.2994 23.8924 26.9115 27.0479 26.4354 30.2683C26.4292 30.3114 26.4231 30.3528 26.4169 30.3959C29.3952 25.3709 31.9917 20.0933 34.9994 15.0543H35Z" fill="#A00025"/>
<path d="M0.0217695 7.94344L0.811538 12.2611C0.943112 12.9796 1.63209 13.4556 2.35057 13.324L8.91242 12.1237L11.6661 27.1776C11.7014 27.3704 11.7789 27.5528 11.8933 27.712L14.8851 31.8711C15.5365 32.7766 16.9475 32.5186 17.2363 31.4411L18.562 26.4921C18.6126 26.3029 18.6207 26.1045 18.5854 25.9121L15.8317 10.8582L22.3933 9.65779C23.1117 9.52622 23.5878 8.83724 23.4562 8.11876L22.6664 3.80113C22.5349 3.08265 21.8459 2.60659 21.1274 2.73816L1.08473 6.40474C0.36626 6.53599 -0.10948 7.22497 0.0217695 7.94344Z" fill="#A00025"/>
</g>
<path d="M60.408 8.664V12.28H54.456V31H49.976V12.28H44.024V8.664H60.408ZM80.1568 21.752C80.1568 22.392 80.1141 22.968 80.0288 23.48H67.0688C67.1754 24.76 67.6234 25.7627 68.4128 26.488C69.2021 27.2133 70.1728 27.576 71.3248 27.576C72.9888 27.576 74.1728 26.8613 74.8768 25.432H79.7088C79.1968 27.1387 78.2154 28.5467 76.7648 29.656C75.3141 30.744 73.5328 31.288 71.4208 31.288C69.7141 31.288 68.1781 30.9147 66.8128 30.168C65.4688 29.4 64.4128 28.3227 63.6448 26.936C62.8981 25.5493 62.5247 23.9493 62.5247 22.136C62.5247 20.3013 62.8981 18.6907 63.6448 17.304C64.3914 15.9173 65.4368 14.8507 66.7808 14.104C68.1248 13.3573 69.6714 12.984 71.4208 12.984C73.1061 12.984 74.6101 13.3467 75.9328 14.072C77.2768 14.7973 78.3114 15.832 79.0368 17.176C79.7834 18.4987 80.1568 20.024 80.1568 21.752ZM75.5168 20.472C75.4954 19.32 75.0794 18.4027 74.2688 17.72C73.4581 17.016 72.4661 16.664 71.2928 16.664C70.1834 16.664 69.2448 17.0053 68.4768 17.688C67.7301 18.3493 67.2714 19.2773 67.1008 20.472H75.5168ZM93.9228 31L87.9068 23.448V31H83.4268V7.32H87.9068V20.792L93.8588 13.272H99.6828L91.8748 22.168L99.7468 31H93.9228ZM121.218 31H116.738L106.594 15.672V31H102.114V8.632H106.594L116.738 23.992V8.632H121.218V31ZM133.518 31.288C131.811 31.288 130.275 30.9147 128.91 30.168C127.544 29.4 126.467 28.3227 125.678 26.936C124.91 25.5493 124.526 23.9493 124.526 22.136C124.526 20.3227 124.92 18.7227 125.71 17.336C126.52 15.9493 127.619 14.8827 129.006 14.136C130.392 13.368 131.939 12.984 133.646 12.984C135.352 12.984 136.899 13.368 138.286 14.136C139.672 14.8827 140.76 15.9493 141.55 17.336C142.36 18.7227 142.766 20.3227 142.766 22.136C142.766 23.9493 142.35 25.5493 141.517 26.936C140.707 28.3227 139.598 29.4 138.19 30.168C136.803 30.9147 135.246 31.288 133.518 31.288ZM133.518 27.384C134.328 27.384 135.086 27.192 135.79 26.808C136.515 26.4027 137.091 25.8053 137.518 25.016C137.944 24.2267 138.158 23.2667 138.158 22.136C138.158 20.4507 137.71 19.16 136.814 18.264C135.939 17.3467 134.862 16.888 133.582 16.888C132.302 16.888 131.224 17.3467 130.35 18.264C129.496 19.16 129.07 20.4507 129.07 22.136C129.07 23.8213 129.486 25.1227 130.318 26.04C131.171 26.936 132.238 27.384 133.518 27.384ZM151.268 16.952V25.528C151.268 26.1253 151.406 26.5627 151.684 26.84C151.982 27.096 152.473 27.224 153.156 27.224H155.236V31H152.42C148.644 31 146.756 29.1653 146.756 25.496V16.952H144.644V13.272H146.756V8.888H151.268V13.272H155.236V16.952H151.268ZM174.938 21.752C174.938 22.392 174.895 22.968 174.81 23.48H161.85C161.957 24.76 162.405 25.7627 163.194 26.488C163.983 27.2133 164.954 27.576 166.106 27.576C167.77 27.576 168.954 26.8613 169.658 25.432H174.49C173.978 27.1387 172.997 28.5467 171.546 29.656C170.095 30.744 168.314 31.288 166.202 31.288C164.495 31.288 162.959 30.9147 161.594 30.168C160.25 29.4 159.194 28.3227 158.426 26.936C157.679 25.5493 157.306 23.9493 157.306 22.136C157.306 20.3013 157.679 18.6907 158.426 17.304C159.173 15.9173 160.218 14.8507 161.562 14.104C162.906 13.3573 164.453 12.984 166.202 12.984C167.887 12.984 169.391 13.3467 170.714 14.072C172.058 14.7973 173.093 15.832 173.818 17.176C174.565 18.4987 174.938 20.024 174.938 21.752ZM170.298 20.472C170.277 19.32 169.861 18.4027 169.05 17.72C168.239 17.016 167.247 16.664 166.074 16.664C164.965 16.664 164.026 17.0053 163.258 17.688C162.511 18.3493 162.053 19.2773 161.882 20.472H170.298ZM184.992 31.288C183.541 31.288 182.24 31.032 181.088 30.52C179.936 29.9867 179.019 29.272 178.336 28.376C177.675 27.48 177.312 26.488 177.248 25.4H181.76C181.845 26.0827 182.176 26.648 182.752 27.096C183.349 27.544 184.085 27.768 184.96 27.768C185.813 27.768 186.475 27.5973 186.944 27.256C187.435 26.9147 187.68 26.4773 187.68 25.944C187.68 25.368 187.381 24.9413 186.784 24.664C186.208 24.3653 185.28 24.0453 184 23.704C182.677 23.384 181.589 23.0533 180.736 22.712C179.904 22.3707 179.179 21.848 178.56 21.144C177.963 20.44 177.664 19.4907 177.664 18.296C177.664 17.3147 177.941 16.4187 178.496 15.608C179.072 14.7973 179.883 14.1573 180.928 13.688C181.995 13.2187 183.243 12.984 184.672 12.984C186.784 12.984 188.469 13.5173 189.728 14.584C190.987 15.6293 191.68 17.048 191.808 18.84H187.52C187.456 18.136 187.157 17.5813 186.624 17.176C186.112 16.7493 185.419 16.536 184.544 16.536C183.733 16.536 183.104 16.6853 182.656 16.984C182.229 17.2827 182.016 17.6987 182.016 18.232C182.016 18.8293 182.315 19.288 182.912 19.608C183.509 19.9067 184.437 20.216 185.696 20.536C186.976 20.856 188.032 21.1867 188.864 21.528C189.696 21.8693 190.411 22.4027 191.008 23.128C191.627 23.832 191.947 24.7707 191.968 25.944C191.968 26.968 191.68 27.8853 191.104 28.696C190.549 29.5067 189.739 30.1467 188.672 30.616C187.627 31.064 186.4 31.288 184.992 31.288Z" fill="#A00025"/>
<defs>
<clipPath id="clip0_111_3535">
<rect width="35" height="35" fill="white" transform="translate(0 2.5)"/>
</clipPath>
</defs>
</svg>
