<svg width="18" height="21" viewBox="0 0 18 21" fill="none" xmlns="http://www.w3.org/2000/svg">
<path d="M1 11.5C1 9.61438 1 8.67157 1.58579 8.08579C2.17157 7.5 3.11438 7.5 5 7.5H13C14.8856 7.5 15.8284 7.5 16.4142 8.08579C17 8.67157 17 9.61438 17 11.5V13.5C17 16.3284 17 17.7426 16.1213 18.6213C15.2426 19.5 13.8284 19.5 11 19.5H7C4.17157 19.5 2.75736 19.5 1.87868 18.6213C1 17.7426 1 16.3284 1 13.5V11.5Z" stroke="#FFC528" stroke-width="2"/>
<path d="M13 6.5V5.5C13 3.29086 11.2091 1.5 9 1.5V1.5C6.79086 1.5 5 3.29086 5 5.5V6.5" stroke="#FFC528" stroke-width="2" stroke-linecap="round"/>
<circle cx="9" cy="13.5" r="2" fill="#FFC528"/>
</svg>
