<svg width="35" height="36" viewBox="0 0 35 36" fill="none" xmlns="http://www.w3.org/2000/svg">
<g clip-path="url(#clip0_111_3608)">
<path d="M35 13.0543C33.6801 18.7094 31.8523 24.2287 29.4959 29.5464C28.9307 30.786 28.361 31.9533 27.6124 33.1333C27.2738 33.6492 26.9101 34.1791 26.3774 34.6302C24.8066 35.9809 22.7753 35.117 22.4071 33.1411C22.0669 31.3117 22.33 29.516 22.5196 27.731C22.8907 24.651 23.3097 21.4307 23.5359 18.3986C23.5498 18.1708 23.5638 17.9414 23.5774 17.7087C22.8845 18.8731 22.2422 20.088 21.6076 21.28C20.2015 23.9289 18.5798 27.1489 17.1079 29.7577C17.3004 28.4751 17.5622 27.2105 17.8516 25.9538C18.6495 22.5672 20.5975 15.2969 22.8874 12.8437C23.6221 12.0383 24.9339 11.6718 25.9321 12.3832C27.5862 13.509 27.392 16.8107 27.395 18.5785C27.2994 21.8925 26.9114 25.048 26.4354 28.2683C26.4292 28.3114 26.4231 28.3529 26.4169 28.396C29.3951 23.3709 31.9916 18.0933 34.9994 13.0543H35Z" fill="#BE123C"/>
<path d="M0.0217085 5.94344L0.811477 10.2611C0.943051 10.9796 1.63203 11.4556 2.3505 11.324L8.91236 10.1237L11.666 25.1776C11.7013 25.3704 11.7788 25.5528 11.8932 25.712L14.885 29.8711C15.5364 30.7766 16.9474 30.5186 17.2362 29.4411L18.562 24.4921C18.6125 24.3029 18.6206 24.1045 18.5853 23.9121L15.8317 8.85816L22.3932 7.65779C23.1117 7.52622 23.5877 6.83724 23.4562 6.11876L22.6664 1.80113C22.5348 1.08265 21.8458 0.60659 21.1274 0.738164L1.08467 4.40474C0.366199 4.53599 -0.109542 5.22497 0.0217085 5.94344Z" fill="#BE123C"/>
</g>
<defs>
<clipPath id="clip0_111_3608">
<rect width="35" height="35" fill="white" transform="translate(0 0.5)"/>
</clipPath>
</defs>
</svg>
