<?xml version="1.0" encoding="UTF-8"?>
<svg id="Layer_1" data-name="Layer 1" xmlns="http://www.w3.org/2000/svg" viewBox="0 0 1080 1080">
  <defs>
    <style>
      .cls-1 {
        fill: #fff;
      }

      .cls-2 {
        fill: #a00025;
      }
    </style>
  </defs>
  <rect class="cls-2" y="0" width="1080" height="1080" rx="194.32" ry="194.32"/>
  <path class="cls-1" d="m715.54,744.64c.12-.85.24-1.67.36-2.52,9.37-63.39,17.01-125.5,18.89-190.74-.06-34.8,3.76-99.8-28.8-121.96-19.64-14.01-45.47-6.79-59.93,9.06-35.69,38.23-67.15,135.88-86.5,207.98l-52.39-286.43,129.17-23.63c14.14-2.59,23.51-16.15,20.92-30.29l-15.55-84.99c-2.59-14.14-16.15-23.51-30.29-20.92l-394.54,72.17c-14.14,2.59-23.51,16.15-20.92,30.29l15.55,84.99c2.59,14.14,16.15,23.51,30.29,20.92l129.17-23.63,54.2,296.33c.69,3.79,2.22,7.39,4.48,10.52l58.89,81.87c11.47,15.94,34.89,13.55,43.77-2.31,0,.02,0,.04-.01.06,28.98-51.35,60.9-114.74,88.58-166.88,12.49-23.46,25.13-47.38,38.77-70.3-.27,4.58-.55,9.09-.82,13.58-4.46,59.69-12.7,123.08-20.01,183.71-3.73,35.14-8.91,70.48-2.21,106.5,7.25,38.89,47.23,55.9,78.15,29.31,10.49-8.88,17.64-19.31,24.31-29.47,14.73-23.22,25.95-46.2,37.08-70.6,46.38-104.68,82.37-213.33,108.35-324.64-59.21,99.19-110.32,203.08-168.94,302Z"/>
</svg>